<?xml version="1.0"?>
<svg width="1280" height="1276" xmlns="http://www.w3.org/2000/svg" xmlns:svg="http://www.w3.org/2000/svg" preserveAspectRatio="xMidYMid meet">
 <metadata>Created by potrace 1.15, written by Peter Selinger 2001-2017</metadata>
 <g class="layer">
  <title>Layer 1</title>
  <g fill="#000000" id="svg_1" transform="translate(0 1276) scale(0.1 -0.1)">
   <path d="m4600,12749c-1217,-85 -2313,-580 -3160,-1429c-788,-790 -1271,-1788 -1404,-2905c-153,-1278 200,-2564 983,-3585c181,-237 501,-570 726,-759c316,-263 641,-473 1020,-657c537,-261 1052,-404 1715,-476c183,-19 720,-16 925,5c703,75 1359,282 1948,614l98,56l87,-85c48,-46 805,-782 1683,-1634c877,-853 1618,-1571 1646,-1596c227,-202 530,-311 818,-295c180,10 292,40 460,122c132,65 213,125 323,239c341,355 427,879 217,1323c-62,132 -134,231 -260,359c-60,61 -829,808 -1707,1658c-879,851 -1598,1551 -1598,1555c0,5 25,51 55,102c135,226 282,545 377,814c182,516 271,993 285,1540c20,806 -143,1565 -491,2280c-239,491 -521,893 -896,1279c-379,389 -794,695 -1275,942c-789,404 -1704,594 -2575,533zm502,-1973c478,-20 1000,-194 1425,-475c1366,-904 1746,-2702 857,-4061c-221,-338 -521,-638 -864,-863c-892,-586 -2052,-635 -2983,-127c-736,401 -1266,1079 -1468,1877c-68,269 -83,398 -83,713c0,236 3,296 23,420c49,316 127,569 260,845c151,314 327,560 576,810c463,465 1049,757 1695,845c90,13 355,28 405,23c17,-1 87,-5 157,-7z" fill="#00923f" id="svg_2"/>
  </g>
 </g>
</svg>