<?xml version="1.0" standalone="no"?>
<!DOCTYPE svg PUBLIC "-//W3C//DTD SVG 20010904//EN"
 "http://www.w3.org/TR/2001/REC-SVG-20010904/DTD/svg10.dtd">
<svg version="1.0" xmlns="http://www.w3.org/2000/svg"
 width="536.000000pt" height="536.000000pt" viewBox="0 0 536.000000 536.000000"
 preserveAspectRatio="xMidYMid meet">
<metadata>
Created by potrace 1.14, written by Peter Selinger 2001-2017
</metadata>
<g transform="translate(0.000000,536.000000) scale(0.100000,-0.100000)"
fill="#000000" stroke="none">
<path d="M1276 4535 c-81 -33 -123 -71 -155 -140 -28 -58 -32 -77 -32 -144 -1
-127 77 -231 206 -276 45 -15 104 -17 558 -18 352 0 507 -4 508 -11 0 -6 1
-762 2 -1681 l2 -1670 26 -62 c42 -100 89 -146 188 -184 67 -25 186 -25 258 0
74 25 119 59 158 118 72 107 68 -8 68 1834 l0 1656 486 0 c267 0 508 3 536 7
154 24 249 137 248 297 -1 127 -60 221 -172 273 -46 21 -46 21 -1436 23
l-1390 3 -59 -25z"/>
</g>
</svg>
