<!DOCTYPE svg PUBLIC "-//W3C//DTD SVG 1.1//EN" "http://www.w3.org/Graphics/SVG/1.1/DTD/svg11.dtd">
<!-- Uploaded to: SVG Repo, www.svgrepo.com, Transformed by: SVG Repo Mixer Tools -->
<svg width="256px" height="256px" viewBox="0 0 21.00 21.00" xmlns="http://www.w3.org/2000/svg" fill="#000000" stroke="#000000" stroke-width="2.1">
<g id="SVGRepo_bgCarrier" stroke-width="0"/>
<g id="SVGRepo_tracerCarrier" stroke-linecap="round" stroke-linejoin="round"/>
<g id="SVGRepo_iconCarrier"> <g fill="none" fill-rule="evenodd" stroke="#000000" stroke-linecap="round" stroke-linejoin="round" transform="matrix(0 1 -1 0 18.5 2.5)"> <g transform="matrix(0 -1 1 0 .5 16.5)"> <path d="m16 0v5h-5" transform="matrix(0 1 1 0 11 -11)"/> <path d="m16 5c-2.8366699-3.33333333-5.6700033-5-8.5-5-2.82999674 0-5.32999674 1-7.5 3"/> </g> <g transform="matrix(0 1 -1 0 14 1)"> <path d="m16 0v5h-5" transform="matrix(0 1 1 0 11 -11)"/> <path d="m16 5c-2.8366699-3.33333333-5.6700033-5-8.5-5-2.82999674 0-5.32999674 1-7.5 3"/> </g> </g> </g>
</svg>